#!OML:ASF F:\VICON\USERDATA\INSTALL\rory3\rory3.ASF
:FULLY-SPECIFIED
:DEGREES
280
root 0.0908762 17.717 3.75156 -2.15258 -1.06638 1.02858
lowerback 3.64773 -0.48756 -1.60338
upperback -0.666421 -0.652097 2.74885
thorax -2.68278 -0.278819 3.77552
lowerneck -18.3217 -3.84392 -9.21324
upperneck 23.5198 -4.29261 6.12538
head 10.9726 -2.04463 3.13101
rclavicle 2.25621e-014 -9.54166e-015
rhumerus -40.8652 -11.6114 -74.0942
rradius 37.627
rwrist 3.03975
rhand -11.8394 14.2206
rfingers 7.12502
rthumb 14.2117 -15.2733
lclavicle 2.25621e-014 -9.54166e-015
lhumerus -42.4848 11.1559 79.6506
lradius 40.3541
lwrist 1.79317
lhand -20.173 26.0454
lfingers 7.12502
lthumb 6.17284 55.9355
rfemur -2.63168 6.06984 22.7405
rtibia 21.8643
rfoot -11.063 -5.11637
rtoes 3.73594
lfemur -2.94571 -4.51711 -23.1637
ltibia 20.5118
lfoot -11.2425 3.16871
ltoes 0.0811944
281
root 0.0954536 17.715 3.76127 -2.21576 -1.02158 1.11373
lowerback 3.73335 -0.455807 -1.60395
upperback -0.668435 -0.612218 2.6619
thorax -2.73692 -0.258702 3.68444
lowerneck -18.2033 -3.83183 -9.23499
upperneck 23.509 -4.29851 6.1945
head 10.9482 -2.04267 3.1599
rclavicle 5.19325e-015 -5.56597e-015
rhumerus -41.1546 -11.5903 -74.1813
rradius 37.6112
rwrist 2.91473
rhand -11.9666 14.4729
rfingers 7.12502
rthumb 14.0892 -15.0295
lclavicle 5.19325e-015 -5.56597e-015
lhumerus -42.5389 11.5718 79.4672
lradius 40.2293
lwrist 2.08663
lhand -19.9316 23.9478
lfingers 7.12502
lthumb 6.40589 53.831
rfemur -2.53785 5.91617 22.6121
rtibia 21.8908
rfoot -11.1519 -5.01493
rtoes 3.67924
lfemur -2.78143 -4.48634 -23.2871
ltibia 20.4181
lfoot -11.2403 3.15063
ltoes 0.108718
282
root 0.0987689 17.7128 3.76836 -2.23212 -1.01504 1.12066
lowerback 3.77078 -0.429736 -1.58515
upperback -0.618694 -0.577738 2.64532
thorax -2.70958 -0.242924 3.65449
lowerneck -18.1915 -3.82647 -9.33577
upperneck 23.4964 -4.27554 6.25074
head 10.9431 -2.03446 3.201
rclavicle -6.36111e-015 6.36111e-015
rhumerus -41.2286 -11.5518 -74.2727
rradius 37.5946
rwrist 2.89473
rhand -12.0386 14.4404
rfingers 7.12502
rthumb 14.0198 -15.0668
lclavicle -6.36111e-015 6.36111e-015
lhumerus -42.5264 11.9203 79.4187
lradius 40.297
lwrist 2.46428
lhand -19.2367 25.5954
lfingers 7.12502
lthumb 7.07672 55.457
rfemur -2.46583 5.89239 22.5928
rtibia 21.863
rfoot -11.167 -5.00148
rtoes 3.57053
lfemur -2.74021 -4.51824 -23.3163
ltibia 20.4056
lfoot -11.2646 3.22344
ltoes -0.114009
283
root 0.100535 17.7106 3.77582 -2.1997 -1.06804 1.08709
lowerback 3.77442 -0.372683 -1.53098
upperback -0.583833 -0.500166 2.61864
thorax -2.68209 -0.206052 3.59118
lowerneck -18.3675 -3.83652 -9.26506
upperneck 23.6347 -4.28241 6.18737
head 11.026 -2.0371 3.16614
rclavicle -2.36057e-015 7.95139e-015
rhumerus -41.1845 -11.6989 -74.3454
rradius 37.3168
rwrist 3.15233
rhand -12.0576 14.3566
rfingers 7.12502
rthumb 14.0015 -15.1519
lclavicle -2.36057e-015 7.95139e-015
lhumerus -42.5617 12.1523 79.3816
lradius 40.3499
lwrist 2.95574
lhand -19.5425 26.9217
lfingers 7.12502
lthumb 6.78151 56.7931
rfemur -2.43442 5.95894 22.6237
rtibia 21.7904
rfoot -11.1438 -5.01561
rtoes 3.59109
lfemur -2.77091 -4.54409 -23.2933
ltibia 20.46
lfoot -11.3311 3.29365
ltoes -0.363436
284
root 0.0962395 17.7117 3.77917 -2.16472 -1.06666 0.935689
lowerback 3.90136 -0.327053 -1.45483
upperback -0.642936 -0.434493 2.6378
thorax -2.81971 -0.171627 3.56623
lowerneck -18.3437 -3.82193 -9.20022
upperneck 23.6396 -4.27599 6.15852
head 11.0202 -2.03216 3.14581
rclavicle 6.95746e-016 -5.56597e-015
rhumerus -41.3948 -11.7731 -74.3777
rradius 37.1954
rwrist 3.24502
rhand -12.0809 14.3699
rfingers 7.12502
rthumb 13.979 -15.1401
lclavicle 6.95746e-016 -5.56597e-015
lhumerus -42.861 12.3665 79.2941
lradius 40.6779
lwrist 2.9117
lhand -19.6454 29.0357
lfingers 7.12502
lthumb 6.68215 58.9102
rfemur -2.45275 6.13542 22.836
rtibia 21.7397
rfoot -11.0424 -5.1739
rtoes 3.6893
lfemur -2.79244 -4.54853 -23.1027
ltibia 20.4762
lfoot -11.3492 3.26256
ltoes -0.347851
285
root 0.0928254 17.7146 3.78165 -2.11381 -1.11725 0.782598
lowerback 3.92212 -0.257311 -1.35654
upperback -0.684196 -0.335609 2.64892
thorax -2.88159 -0.122452 3.51667
lowerneck -17.9244 -3.80121 -9.24415
upperneck 23.2976 -4.27743 6.22668
head 10.815 -2.0323 3.17452
rclavicle 9.06955e-015 -3.18055e-015
rhumerus -41.6311 -11.9893 -74.3244
rradius 37.0397
rwrist 3.38467
rhand -12.1819 14.4277
rfingers 7.12502
rthumb 13.8817 -15.089
lclavicle 9.06955e-015 -3.18055e-015
lhumerus -42.9882 12.4238 79.3039
lradius 40.9776
lwrist 2.79189
lhand -18.9052 31.206
lfingers 7.12502
lthumb 7.39669 61.0567
rfemur -2.48852 6.32117 23.0477
rtibia 21.6904
rfoot -10.9928 -5.34592
rtoes 3.83622
lfemur -2.83471 -4.50428 -22.9093
ltibia 20.4589
lfoot -11.3152 3.23651
ltoes -0.152104
286
root 0.0970596 17.7165 3.79201 -2.08347 -1.14712 0.932785
lowerback 3.77145 -0.201054 -1.44093
upperback -0.660127 -0.267424 2.55163
thorax -2.77679 -0.089539 3.45743
lowerneck -17.5427 -3.77453 -9.39205
upperneck 23.0473 -4.27344 6.42021
head 10.657 -2.02461 3.26885
rclavicle -8.92046e-015 -2.38542e-014
rhumerus -41.8115 -12.1441 -74.321
rradius 36.9371
rwrist 3.48879
rhand -12.121 14.172
rfingers 7.12502
rthumb 13.9404 -15.3406
lclavicle -8.92046e-015 -2.38542e-014
lhumerus -43.0372 12.4887 79.3157
lradius 40.9837
lwrist 2.98918
lhand -18.9784 29.631
lfingers 7.12502
lthumb 7.32601 59.4842
rfemur -2.46001 6.22791 22.8441
rtibia 21.6472
rfoot -11.0431 -5.26717
rtoes 3.73374
lfemur -2.79746 -4.58455 -23.1196
ltibia 20.4214
lfoot -11.284 3.36983
ltoes 0.196011
287
root 0.103102 17.7184 3.80342 -1.99878 -1.09227 1.05247
lowerback 3.6469 -0.196836 -1.4965
upperback -0.673763 -0.265534 2.49016
thorax -2.72088 -0.0888101 3.4239
lowerneck -17.4413 -3.75099 -9.41552
upperneck 23.0462 -4.23583 6.3941
head 10.6337 -2.01425 3.26944
rclavicle -9.06955e-015 1.74931e-014
rhumerus -41.9248 -12.0605 -74.3927
rradius 36.7835
rwrist 3.37295
rhand -12.1272 13.8636
rfingers 7.12502
rthumb 13.9344 -15.6495
lclavicle -9.06955e-015 1.74931e-014
lhumerus -43.1161 12.8628 79.1567
lradius 40.7623
lwrist 2.78609
lhand -19.0601 27.8269
lfingers 7.12502
lthumb 7.24716 57.6828
rfemur -2.48283 6.08286 22.6481
rtibia 21.6035
rfoot -11.09 -5.1307
rtoes 3.71015
lfemur -2.80307 -4.66824 -23.2975
ltibia 20.3734
lfoot -11.2382 3.42547
ltoes 0.305425
288
root 0.106857 17.7185 3.81007 -1.97333 -1.11045 1.02244
lowerback 3.6876 -0.165596 -1.46773
upperback -0.64857 -0.222671 2.49987
thorax -2.72089 -0.0680756 3.41533
lowerneck -17.6813 -3.76901 -9.31181
upperneck 23.1989 -4.20499 6.1343
head 10.7253 -2.01922 3.16265
rclavicle -1.34428e-014 3.18055e-015
rhumerus -41.7857 -12.105 -74.4074
rradius 36.304
rwrist 3.51898
rhand -12.3367 14.003
rfingers 7.12502
rthumb 13.7325 -15.5238
lclavicle -1.34428e-014 3.18055e-015
lhumerus -42.9448 13.3386 79.0663
lradius 40.4297
lwrist 2.29417
lhand -18.6797 28.4161
lfingers 7.12502
lthumb 7.61431 58.259
rfemur -2.47022 6.07292 22.6585
rtibia 21.5481
rfoot -11.0838 -5.07365
rtoes 4.01887
lfemur -2.77594 -4.67899 -23.2861
ltibia 20.3349
lfoot -11.2559 3.47778
ltoes 0.453906
